# Blender v2.93.5 OBJ File: 'Car.blend'
# www.blender.org
o Windows_Windows_Cube.004
v 0.998691 1.003187 0.783604
v 0.890325 1.158556 1.186893
v 0.998563 1.003105 1.186918
v 0.996983 0.997056 -0.002899
v 0.798900 1.333430 -0.082136
v 0.798972 1.362091 0.312857
v 0.799250 1.330154 0.713903
v 0.754147 1.006500 -0.770778
v 0.783310 1.370887 -0.078810
v 1.005229 0.983783 -0.770778
v 0.000000 1.006500 -0.770778
v 0.316701 1.370887 -0.078810
v 0.394557 1.006500 -0.770778
v 0.654151 1.370887 -0.078810
v -0.890325 1.158556 1.186893
v -0.998691 1.003187 0.783604
v -0.998563 1.003105 1.186918
v -0.996983 0.997056 -0.002899
v -0.798900 1.333430 -0.082136
v -0.995790 0.991856 -0.693571
v -0.798972 1.362091 0.312857
v -0.754147 1.006500 -0.770778
v -0.783310 1.370887 -0.078810
v -0.654151 1.370887 -0.078810
v -0.316701 1.370887 -0.078810
v -0.394557 1.006500 -0.770778
v 0.995790 0.991856 -0.693571
v 0.000000 1.370887 -0.078810
v -0.799250 1.330154 0.713903
v -1.005229 0.983783 -0.770778
vt 0.625000 0.750000
vt 0.625000 0.750000
vt 0.625000 0.750000
vt 0.625000 0.750000
vt 0.625000 0.750000
vt 0.625000 0.750000
vt 0.625000 0.750000
vt 0.625000 0.750000
vt 0.625000 0.750000
vt 0.625000 0.750000
vt 0.750000 0.750000
vt 0.686932 0.750000
vt 0.686932 0.750000
vt 0.625000 0.750000
vt 0.625000 0.750000
vt 0.625000 0.750000
vt 0.625000 0.750000
vt 0.625000 0.750000
vt 0.625000 0.750000
vt 0.625000 0.750000
vt 0.625000 0.750000
vt 0.625000 0.750000
vt 0.625000 0.750000
vt 0.625000 0.750000
vt 0.686932 0.750000
vt 0.686932 0.750000
vt 0.625000 0.750000
vt 0.750000 0.750000
vt 0.625000 0.750000
vt 0.625000 0.750000
vn 0.8207 0.5714 0.0004
vn 0.8649 0.5007 -0.0365
vn 0.8490 0.5267 0.0414
vn 0.0797 0.8806 -0.4671
vn 0.0000 0.8848 -0.4659
vn -0.8207 0.5714 0.0004
vn -0.8622 0.5065 -0.0053
vn -0.8769 0.4806 -0.0057
vn 0.8509 0.5247 0.0265
vn 0.8622 0.5065 -0.0053
vn 0.8769 0.4806 -0.0057
vn -0.8509 0.5247 0.0265
vn -0.8649 0.5007 -0.0365
vn -0.8490 0.5267 0.0414
vn -0.0797 0.8806 -0.4671
s 1
f 1/1/1 2/2/1 3/3/1
f 4/4/2 5/5/2 6/6/2
f 1/1/3 6/6/3 7/7/3
f 8/8/4 9/9/4 10/10/4
f 11/11/5 12/12/5 13/13/5
f 13/13/5 14/14/5 8/8/5
f 15/15/6 16/16/6 17/17/6
f 18/18/7 19/19/7 20/20/7
f 16/16/8 21/21/8 18/18/8
f 22/22/5 23/23/5 24/24/5
f 25/25/5 11/11/5 26/26/5
f 24/24/5 26/26/5 22/22/5
f 1/1/9 7/7/9 2/2/9
f 4/4/10 27/27/10 5/5/10
f 1/1/11 4/4/11 6/6/11
f 8/8/5 14/14/5 9/9/5
f 11/11/5 28/28/5 12/12/5
f 13/13/5 12/12/5 14/14/5
f 15/15/12 29/29/12 16/16/12
f 18/18/13 21/21/13 19/19/13
f 16/16/14 29/29/14 21/21/14
f 22/22/15 30/30/15 23/23/15
f 25/25/5 28/28/5 11/11/5
f 24/24/5 25/25/5 26/26/5
