# Blender v2.93.5 OBJ File: 'tree_blender_file.blend'
# www.blender.org
o Trunk_Plane.001
v -1.000000 0.000000 1.000000
v 1.000000 0.000000 1.000000
v -1.000000 0.000000 -1.000000
v 1.000000 0.000000 -1.000000
v -0.365081 2.543540 -0.824538
v -0.857529 2.772557 0.428039
v 0.496987 2.561255 0.860991
v 0.857529 3.003882 -0.428039
v -0.855268 4.789886 -1.199579
v -1.196551 4.948604 -0.331502
v -0.349242 5.267636 -0.056715
v -1.138280 6.971487 -1.800016
v -1.749619 6.962126 -1.227040
v -1.180086 7.044919 -0.618022
v -0.568747 7.054280 -1.190998
v -0.680687 9.725967 -1.442101
v -1.139971 9.834243 -1.032697
v -0.843715 9.484832 -0.607937
v -0.384432 9.376555 -1.017341
v 0.159446 11.143271 -0.724128
v -0.166343 11.189194 -0.437359
v 0.092977 11.041156 -0.119048
v 0.418765 10.995234 -0.405818
v 0.396208 12.860204 -0.609642
v 0.267181 12.859077 -0.489308
v 0.387076 12.873027 -0.360622
v 0.516102 12.874152 -0.480956
v 0.067891 14.202575 -0.877696
v 0.267918 5.784911 -0.756470
v -0.108771 5.572867 -1.503898
v 0.721529 5.050519 -0.776736
v 0.344840 4.838475 -1.524164
v 1.498003 6.515677 -1.758514
v 1.169240 6.324014 -2.352079
v 1.388644 5.660390 -2.259317
v 1.717408 5.852054 -1.665752
v 2.639484 6.583818 -2.900416
v 2.392749 6.192459 -3.046235
v 2.667350 5.912831 -2.760391
v 2.914085 6.304191 -2.614572
v 3.501664 7.252950 -3.784466
v 3.311295 7.110976 -3.867509
v 3.472623 6.925062 -3.919494
v 3.662992 7.067036 -3.836450
v 3.159302 7.920599 -5.079645
v -1.321209 5.517255 -0.709263
v -1.721838 6.190084 -0.056931
v -1.593454 6.675723 -0.579630
v -1.077747 6.353131 0.247293
v -0.957902 6.838881 -0.282574
v -2.707938 7.089704 1.957675
v -2.609185 7.458839 1.526262
v -2.053223 7.452221 1.662774
v -2.150952 7.087207 2.078443
v -2.652938 8.618079 2.276525
v -2.345313 8.693187 2.124322
v -2.171387 8.491638 2.341300
v -2.477823 8.404898 2.505856
v -2.641070 10.113747 3.102983
v -2.548586 10.099888 3.058218
v -2.482995 10.073728 3.141241
v -2.589327 10.081714 3.214227
v -2.602045 11.480728 2.799266
v -0.541624 4.907981 -1.097862
v -0.415491 4.348096 -1.002970
v 0.159552 4.701500 -0.828647
v -0.296489 5.420749 -0.369390
v -0.132765 5.541870 -0.984037
v -0.765381 6.480906 -0.579725
v -0.806003 6.244708 -0.365297
v -0.995995 6.631337 -0.490889
v 0.044653 4.613785 -0.312699
v -0.566315 5.277776 -1.190141
v -1.190943 5.662539 -0.429081
v -0.740346 5.719133 -0.267161
v -1.450144 6.395366 -0.818162
vt 0.115454 0.861522
vt 0.194966 0.936915
vt 0.113749 0.936915
vt 0.331984 0.022612
vt 0.336469 0.035776
vt 0.313497 0.041434
vt 0.136261 0.084646
vt 0.239833 0.044640
vt 0.257316 0.095955
vt 0.202128 0.214587
vt 0.297186 0.144955
vt 0.315709 0.198180
vt 0.354557 0.369341
vt 0.296876 0.260702
vt 0.392905 0.304636
vt 0.538338 0.079612
vt 0.443787 0.147766
vt 0.442485 0.092472
vt 0.092967 0.238556
vt 0.119629 0.213955
vt 0.124268 0.223593
vt 0.415806 0.169871
vt 0.409571 0.207051
vt 0.257937 0.302760
vt 0.186816 0.276513
vt 0.199342 0.258903
vt 0.348670 0.103847
vt 0.259607 0.134417
vt 0.152953 0.127045
vt 0.255998 0.102965
vt 0.349572 0.142167
vt 0.323071 0.134946
vt 0.423851 0.035655
vt 0.361849 0.053163
vt 0.351673 0.033427
vt 0.179282 0.233082
vt 0.438574 0.202857
vt 0.435715 0.214299
vt 0.517810 0.048791
vt 0.588833 0.076177
vt 0.582131 0.091770
vt 0.421834 0.002808
vt 0.483431 0.196035
vt 0.593035 0.176996
vt 0.602939 0.199451
vt 0.101675 0.208242
vt 0.014380 0.201512
vt 0.016412 0.177679
vt 0.709352 0.057589
vt 0.637090 0.048807
vt 0.706730 0.041291
vt 0.667320 0.167462
vt 0.812891 0.684605
vt 0.754159 0.661062
vt 0.812891 0.659222
vt 0.300871 0.624104
vt 0.365401 0.598967
vt 0.365720 0.616344
vt 0.658567 0.095979
vt 0.658284 0.089059
vt 0.713446 0.073730
vt 0.947369 0.421757
vt 0.938322 0.354992
vt 0.944980 0.355237
vt 0.739347 0.163863
vt 0.737328 0.170499
vt 0.787360 0.198555
vt 0.637329 0.055442
vt 0.578345 0.057594
vt 0.947380 0.298361
vt 0.338868 0.252245
vt 0.342214 0.218435
vt 0.349814 0.234337
vt 0.494027 0.824163
vt 0.529959 0.822552
vt 0.519223 0.843552
vt 0.946847 0.153455
vt 0.945464 0.184192
vt 0.930896 0.172203
vt 0.177783 0.280526
vt 0.168059 0.241917
vt 0.912023 0.154982
vt 0.944165 0.105659
vt 0.282757 0.251749
vt 0.229946 0.216086
vt 0.286417 0.224014
vt 0.150079 0.259952
vt 0.136445 0.316617
vt 0.110096 0.305333
vt 0.488716 0.857259
vt 0.441612 0.831575
vt 0.090650 0.363503
vt 0.059865 0.406454
vt 0.053552 0.398823
vt 0.107262 0.363826
vt 0.392563 0.828302
vt 0.403575 0.817857
vt 0.922680 0.053348
vt 0.937445 0.048009
vt 0.336282 0.830321
vt 0.337177 0.839876
vt 0.283565 0.856996
vt 0.910815 0.009308
vt 0.918818 0.004077
vt 0.224589 0.232155
vt 0.189102 0.220839
vt 0.895199 0.413885
vt 0.904975 0.416721
vt 0.895199 0.470692
vt 0.336678 0.012477
vt 0.333649 0.002730
vt 0.384194 0.002730
vt 0.003478 0.423983
vt 0.577245 0.131409
vt 0.557932 0.130813
vt 0.567408 0.125045
vt 0.143341 0.192674
vt 0.157497 0.225457
vt 0.136617 0.219426
vt 0.418079 0.076136
vt 0.379961 0.076195
vt 0.389469 0.066114
vt 0.127173 0.111287
vt 0.147725 0.101438
vt 0.575686 0.030933
vt 0.527159 0.010763
vt 0.535334 0.003468
vt 0.665652 0.031640
vt 0.671842 0.002815
vt 0.511217 0.053789
vt 0.516222 0.076195
vt 0.575417 0.102229
vt 0.669634 0.123551
vt 0.230306 0.004146
vt 0.171907 0.019796
vt 0.170862 0.015427
vt 0.291761 0.002809
vt 0.237927 0.016192
vt 0.902359 0.550747
vt 0.927511 0.504434
vt 0.924166 0.547019
vt 0.107596 0.061366
vt 0.923154 0.441071
vt 0.918973 0.440664
vt 0.902084 0.386357
vt 0.915581 0.498052
vt 0.060325 0.015543
vt 0.060986 0.010988
vt 0.513352 0.015068
vt 0.456277 0.002739
vt 0.518468 0.002739
vt 0.003151 0.003068
vt 0.195423 0.002738
vt 0.194872 0.006092
vt 0.138403 0.002738
vt 0.115475 0.003243
vt 0.687597 0.005813
vt 0.706762 0.036721
vt 0.459196 0.183540
vt 0.437289 0.183712
vt 0.432021 0.156637
vt 0.464992 0.171730
vt 0.479551 0.151897
vt 0.493668 0.164722
vt 0.152660 0.263168
vt 0.327304 0.065487
vt 0.196670 0.861522
vt 0.137071 0.015623
vt 0.192245 0.146570
vt 0.557788 0.151116
vt 0.150927 0.150738
vt 0.532904 0.029901
vt 0.664755 0.150508
vt 0.753667 0.678704
vt 0.301296 0.598967
vt 0.931122 0.419117
vt 0.362182 0.216239
vt 0.363498 0.249535
vt 0.510343 0.856292
vt 0.910471 0.189508
vt 0.915691 0.107882
vt 0.430475 0.857629
vt 0.183715 0.229066
vt 0.560229 0.101408
vt 0.116394 0.204828
vt 0.388423 0.046580
vt 0.420192 0.046490
vt 0.569987 0.053654
vt 0.674717 0.101234
vt 0.288374 0.024297
vt 0.102661 0.071357
vt 0.454030 0.006299
vn 0.0000 -1.0000 0.0000
vn 0.3523 -0.1385 -0.9256
vn 0.3551 -0.1479 -0.9231
vn 0.3357 -0.0834 -0.9383
vn 0.0711 0.1066 -0.9918
vn 0.2327 0.0576 -0.9708
vn 0.2940 0.0417 -0.9549
vn -0.0877 0.1050 0.9906
vn -0.2037 0.1823 0.9619
vn -0.2784 0.2257 0.9336
vn 0.9876 0.1306 0.0872
vn 0.9506 0.1864 0.2483
vn 0.9813 0.1927 0.0000
vn -0.9870 0.1108 -0.1167
vn -0.9591 -0.0310 -0.2814
vn -0.9295 0.0163 -0.3684
vn 0.6970 0.3939 0.5992
vn 0.5875 0.4823 0.6498
vn 0.7832 0.3306 0.5266
vn -0.3483 0.1920 0.9175
vn -0.3693 0.1988 0.9078
vn 0.9159 0.2341 0.3260
vn 0.8683 0.4195 0.2647
vn 0.8600 0.3976 0.3198
vn -0.8958 -0.2775 -0.3471
vn -0.6652 0.2013 -0.7190
vn -0.5638 0.3966 -0.7245
vn -0.6711 0.2041 -0.7127
vn -0.9034 -0.3074 -0.2990
vn -0.8440 -0.3145 -0.4345
vn 0.7085 -0.0032 -0.7057
vn 0.4293 0.0002 -0.9032
vn 0.4273 -0.1334 -0.8942
vn 0.8397 0.4172 0.3476
vn -0.9168 0.0611 0.3946
vn 0.7759 -0.0811 -0.6256
vn 0.7515 -0.0935 -0.6531
vn 0.7501 -0.0936 -0.6546
vn 0.7153 -0.0220 -0.6984
vn -0.7509 0.0819 0.6553
vn -0.7401 0.1582 0.6536
vn -0.7349 0.1738 0.6555
vn 0.6756 -0.1056 0.7297
vn 0.5996 -0.3009 0.7416
vn 0.5890 -0.3153 0.7441
vn 0.6615 -0.0069 0.7499
vn 0.6676 0.1867 0.7207
vn 0.6602 -0.0069 0.7511
vn -0.7093 0.2086 0.6733
vn 0.5189 -0.5164 0.6812
vn -0.5685 0.4035 -0.7169
vn -0.5780 0.3901 -0.7168
vn 0.7345 -0.0126 -0.6785
vn 0.7320 -0.0071 -0.6812
vn 0.7288 0.0418 -0.6835
vn -0.6780 -0.0594 -0.7327
vn -0.6793 -0.0825 -0.7292
vn -0.7298 0.1530 0.6663
vn -0.7316 0.1479 0.6655
vn -0.7336 0.0861 0.6741
vn 0.6660 0.2089 0.7161
vn 0.6204 0.4092 0.6691
vn -0.6496 -0.2985 -0.6993
vn -0.5175 0.8555 0.0181
vn -0.5173 0.8557 0.0169
vn -0.5292 0.8481 0.0261
vn -0.4311 -0.2422 -0.8692
vn -0.4357 -0.2450 -0.8661
vn -0.4357 -0.2451 -0.8661
vn 0.5583 -0.8284 -0.0464
vn 0.5292 -0.8481 -0.0263
vn 0.5291 -0.8481 -0.0262
vn 0.4672 0.2652 0.8434
vn 0.4357 0.2451 0.8661
vn 0.4357 0.2450 0.8661
vn 0.5590 -0.8278 -0.0466
vn 0.4530 -0.8908 0.0363
vn -0.0552 0.9587 -0.2790
vn -0.5056 0.8628 0.0040
vn -0.5059 0.8626 0.0017
vn 0.4681 0.2650 0.8430
vn 0.5118 0.2836 0.8110
vn 0.5134 0.2830 0.8101
vn -0.4305 -0.2452 -0.8686
vn -0.4540 -0.2651 -0.8506
vn 0.5721 0.2810 0.7706
vn 0.3828 0.8169 0.4314
vn 0.2913 0.8086 0.5112
vn 0.2752 0.8060 0.5241
vn -0.1025 -0.7585 -0.6436
vn -0.0715 -0.7465 -0.6616
vn -0.0778 -0.7490 -0.6580
vn 0.6276 -0.5865 0.5121
vn 0.7218 -0.5899 0.3619
vn 0.7673 -0.5945 0.2405
vn -0.7613 -0.5792 -0.2914
vn -0.0467 -0.7361 -0.6753
vn 0.6548 -0.7518 -0.0774
vn 0.6230 -0.7755 -0.1023
vn -0.7143 0.6032 -0.3549
vn -0.6617 0.7234 0.1971
vn -0.6768 0.5905 -0.4396
vn 0.6306 -0.4966 -0.5965
vn -0.6502 0.7025 0.2893
vn -0.6496 0.5921 0.4769
vn 0.7663 0.6307 0.1226
vn 0.0394 0.8404 -0.5405
vn 0.1711 0.6821 -0.7109
vn 0.1633 0.6838 -0.7111
vn 0.8918 0.2148 0.3981
vn 0.9103 0.1831 0.3714
vn 0.8754 0.2652 0.4042
vn -0.0974 -0.8218 0.5614
vn -0.3570 -0.7511 0.5554
vn -0.2668 -0.7193 0.6415
vn 0.9037 0.1931 0.3822
vn 0.9107 0.1797 0.3719
vn -0.4813 0.4634 -0.7441
vn -0.4791 0.4494 -0.7540
vn -0.4819 0.4493 -0.7523
vn -0.9117 -0.1693 -0.3744
vn -0.9573 -0.0695 -0.2807
vn -0.9143 -0.1591 -0.3724
vn -0.0628 -0.9246 0.3758
vn -0.0847 -0.9246 0.3714
vn 0.0576 0.8329 -0.5504
vn 0.0598 0.9470 -0.3157
vn -0.8570 -0.1813 0.4823
vn -0.9089 -0.0673 0.4115
vn -0.9092 -0.0259 0.4155
vn -0.8286 -0.0856 0.5532
vn -0.8481 -0.1502 0.5080
vn 0.2051 0.5513 -0.8087
vn 0.9357 0.1251 0.3299
vn 0.7677 -0.0893 -0.6346
vn 0.8528 0.2449 -0.4612
vn 0.7827 0.4178 -0.4613
vn 0.8503 0.2179 -0.4791
vn 0.5185 -0.3561 0.7774
vn 0.5233 -0.3018 0.7969
vn 0.5241 -0.3016 0.7965
vn -0.3465 0.4567 -0.8194
vn 0.5616 0.2400 0.7919
vn -0.4503 -0.1814 -0.8742
vn -0.8854 0.1248 0.4478
vn -0.9131 -0.1685 -0.3713
vn -0.9101 -0.1799 -0.3733
vn -0.3497 0.1296 0.9279
vn -0.8414 -0.0569 0.5374
vn -0.7817 -0.0084 0.6236
vn 0.8154 0.4662 0.3432
vn -0.5816 -0.0088 0.8134
vn -0.6976 0.0707 0.7130
vn 0.8095 0.4156 0.4147
vn 0.6009 0.4669 0.6488
vn 0.0000 0.0688 -0.9976
vn 0.0000 0.0542 0.9985
vn -0.9987 0.0513 0.0000
vn -0.5518 0.4085 -0.7271
vn -0.6168 -0.4212 -0.6650
vn -0.6960 -0.3727 -0.6137
vn 0.7775 -0.0963 -0.6215
vn 0.6807 -0.1082 0.7245
vn -0.7086 0.2084 0.6742
vn 0.5238 -0.5160 0.6778
vn -0.5291 0.8482 0.0262
vn -0.5293 0.8481 0.0261
vn -0.4357 -0.2452 -0.8660
vn 0.5291 -0.8481 -0.0261
vn 0.4445 -0.8948 0.0427
vn -0.5925 0.5813 -0.5576
vn -0.4593 -0.2701 -0.8462
vn 0.1761 0.7829 0.5967
vn 0.5267 0.2860 0.8005
vn -0.4964 -0.2790 -0.8220
vn 0.2536 -0.9528 0.1672
vn -0.5191 -0.2195 -0.8261
vn 0.1566 0.6852 -0.7113
vn 0.8977 0.2043 0.3903
vn -0.1732 -0.6745 0.7177
vn -0.0616 -0.8205 0.5684
vn -0.9610 -0.0588 -0.2703
vn -0.9838 0.0699 -0.1654
vn 0.0874 0.9467 -0.3099
vn -0.2002 -0.3469 0.9163
vn 0.8192 0.0986 -0.5650
vn 0.5187 -0.4252 0.7417
vn 0.5186 -0.3704 0.7706
vn 0.7703 0.4262 -0.4743
vn -0.3306 0.4585 -0.8249
s 1
f 3/1/1 2/2/1 1/3/1
f 9/4/2 64/5/3 65/6/4
f 4/7/5 5/8/6 8/9/7
f 1/10/8 7/11/9 6/12/10
f 4/13/11 7/14/12 2/15/13
f 3/16/14 6/17/15 5/18/16
f 15/19/17 71/20/18 69/21/19
f 6/12/10 11/22/20 10/23/21
f 8/24/22 66/25/23 72/26/24
f 6/17/15 9/27/25 5/18/16
f 13/28/26 16/29/27 12/30/28
f 9/27/25 10/31/29 46/32/30
f 15/33/31 68/34/32 73/35/33
f 11/36/34 7/14/12 72/26/24
f 74/37/35 46/38/35 10/23/35
f 19/39/36 20/40/37 23/41/38
f 12/42/39 19/39/36 15/33/31
f 13/43/40 18/44/41 17/45/42
f 14/46/43 19/47/44 18/48/45
f 23/49/46 26/50/47 22/51/48
f 18/44/41 21/52/49 17/45/42
f 19/53/44 22/54/50 18/55/45
f 16/56/27 21/57/51 20/58/52
f 27/59/53 24/60/54 28/61/55
f 20/62/52 25/63/56 24/64/57
f 20/40/37 27/59/53 23/41/38
f 21/52/49 26/65/58 25/66/59
f 25/66/59 26/65/58 28/67/60
f 26/50/47 27/68/61 28/69/62
f 24/64/57 25/63/56 28/70/63
f 29/71/64 30/72/65 68/73/66
f 32/74/67 65/75/68 64/76/69
f 31/77/70 72/78/71 66/79/72
f 31/80/73 67/81/74 72/26/75
f 32/82/76 36/83/77 31/77/70
f 33/84/78 38/85/78 34/86/78
f 30/72/65 33/84/79 34/86/80
f 29/87/81 36/88/82 33/89/83
f 30/90/84 35/91/85 32/74/67
f 37/92/86 44/93/86 41/94/86
f 33/89/87 40/95/88 37/92/89
f 35/91/90 38/96/91 39/97/92
f 36/83/93 39/98/94 40/99/95
f 43/100/96 42/101/96 45/102/96
f 38/96/91 43/100/97 39/97/92
f 40/99/95 43/103/98 44/104/99
f 37/105/100 42/106/101 38/85/102
f 44/107/103 43/108/103 45/109/103
f 42/110/101 41/111/104 45/112/105
f 41/94/106 44/93/106 45/113/106
f 50/114/107 69/115/108 71/116/109
f 49/117/110 75/118/111 70/119/112
f 47/120/113 46/121/114 74/122/115
f 49/117/110 53/123/116 54/124/117
f 52/125/118 55/126/119 56/127/120
f 47/128/121 52/125/122 48/129/123
f 47/120/113 54/130/124 51/131/125
f 48/132/126 53/133/127 50/114/107
f 55/134/128 62/135/129 59/136/130
f 51/137/131 58/138/132 55/134/128
f 52/139/133 57/140/133 53/141/133
f 53/123/116 58/142/134 54/124/117
f 61/143/135 60/144/135 63/145/135
f 56/146/136 61/143/137 57/140/138
f 58/142/139 61/147/140 62/148/141
f 55/149/119 60/150/142 56/151/120
f 62/148/143 61/147/143 63/152/143
f 60/153/144 59/154/144 63/155/144
f 59/136/130 62/135/129 63/156/145
f 47/128/121 76/157/146 46/158/147
f 11/22/20 70/159/148 75/160/148
f 13/43/40 46/161/149 76/162/150
f 72/26/24 67/81/151 11/36/34
f 7/14/12 8/24/22 72/26/24
f 10/23/21 11/22/20 75/160/148
f 75/160/148 74/37/148 10/23/21
f 71/163/152 14/164/153 76/162/150
f 14/164/153 13/43/40 76/162/150
f 70/119/112 11/36/34 67/81/151
f 67/81/151 68/165/154 70/119/112
f 68/165/154 15/19/17 69/21/19
f 15/19/17 14/46/155 71/20/18
f 69/21/19 70/119/112 68/165/154
f 73/35/33 64/5/3 9/4/2
f 9/4/2 12/42/39 73/35/33
f 12/42/39 15/33/31 73/35/33
f 66/166/4 8/9/7 65/6/4
f 8/9/7 5/8/6 65/6/4
f 5/8/6 9/4/2 65/6/4
f 3/1/1 4/167/1 2/2/1
f 4/7/5 3/168/156 5/8/6
f 1/10/8 2/169/157 7/11/9
f 4/13/11 8/24/22 7/14/12
f 3/16/14 1/170/158 6/17/15
f 6/12/10 7/11/9 11/22/20
f 6/17/15 10/31/29 9/27/25
f 13/28/26 17/171/159 16/29/27
f 46/32/30 13/28/160 12/30/161
f 12/30/161 9/27/25 46/32/30
f 19/39/36 16/172/162 20/40/37
f 12/42/39 16/172/162 19/39/36
f 13/43/40 14/164/153 18/44/41
f 14/46/43 15/19/163 19/47/44
f 23/49/46 27/68/61 26/50/47
f 18/44/41 22/173/164 21/52/49
f 19/53/44 23/174/165 22/54/50
f 16/56/27 17/175/159 21/57/51
f 20/62/52 21/176/51 25/63/56
f 20/40/37 24/60/54 27/59/53
f 21/52/49 22/173/164 26/65/58
f 30/72/65 73/177/166 68/73/66
f 68/73/66 67/178/167 29/71/64
f 64/76/69 73/179/168 30/90/84
f 30/90/84 32/74/67 64/76/69
f 66/79/72 65/180/169 32/82/76
f 32/82/76 31/77/70 66/79/72
f 31/80/73 29/87/81 67/81/74
f 32/82/76 35/181/170 36/83/77
f 33/84/171 37/105/100 38/85/102
f 30/72/65 29/71/64 33/84/79
f 29/87/81 31/80/73 36/88/82
f 30/90/84 34/182/172 35/91/85
f 37/92/89 40/95/88 44/93/173
f 33/89/83 36/88/82 40/95/174
f 35/91/85 34/182/172 38/96/175
f 36/83/77 35/181/170 39/98/176
f 38/96/177 42/101/177 43/100/177
f 40/99/95 39/98/94 43/103/98
f 37/105/100 41/183/104 42/106/101
f 76/184/178 48/132/126 71/116/109
f 48/132/126 50/114/107 71/116/109
f 70/119/112 69/21/19 50/185/179
f 50/185/179 49/117/110 70/119/112
f 74/122/115 75/186/180 49/187/181
f 49/187/181 47/120/113 74/122/115
f 49/117/110 50/185/179 53/123/116
f 52/125/122 51/188/182 55/126/183
f 47/128/121 51/188/182 52/125/122
f 47/120/113 49/187/181 54/130/124
f 48/132/126 52/189/184 53/133/127
f 55/134/128 58/138/132 62/135/129
f 51/137/185 54/190/185 58/138/185
f 52/139/186 56/146/136 57/140/138
f 53/123/187 57/191/188 58/142/139
f 56/146/136 60/144/189 61/143/137
f 58/142/139 57/191/188 61/147/140
f 55/149/119 59/192/190 60/150/142
f 47/128/121 48/129/123 76/157/146
